<?xml version="1.0" standalone="no"?>
<svg xmlns="http://www.w3.org/2000/svg"
     viewBox="0 0 512 512"
     preserveAspectRatio="xMidYMid meet"
>

<g transform="translate(0.000000,512.000000) scale(0.100000,-0.100000)"
   fill="currentColor"   stroke="none">
<path d="M748 4990 c-44 -24 -62 -48 -121 -166 -46 -91 -46 -91 -149 -162
l-103 -70 -115 -12 c-138 -14 -190 -36 -228 -93 -22 -33 -27 -52 -27 -103 l0
-63 140 -206 c147 -218 192 -268 282 -311 85 -40 155 -49 274 -36 57 6 107 9
111 6 5 -3 45 -60 89 -125 98 -147 110 -159 152 -159 52 0 90 57 67 99 -6 11
-145 218 -310 460 -165 242 -300 444 -300 448 0 4 24 23 52 42 l52 34 17 -22
c36 -44 1139 -1669 1139 -1678 0 -4 -23 -23 -51 -41 -43 -28 -54 -31 -64 -20
-7 7 -90 128 -185 268 -185 273 -203 296 -232 306 -56 17 -107 -46 -83 -102 7
-16 96 -150 198 -299 l184 -270 -27 -32 c-56 -63 -63 -148 -20 -218 17 -28 49
-49 176 -112 134 -68 154 -81 149 -98 -25 -93 -29 -257 -9 -377 l7 -38 -32 11
c-44 15 -148 7 -195 -16 -129 -62 -185 -218 -126 -353 37 -85 83 -117 286
-199 99 -40 742 -300 1429 -579 1599 -647 1465 -596 1538 -595 113 0 216 75
250 182 10 28 17 66 17 84 0 51 -26 125 -59 166 l-31 38 33 20 c52 32 124 112
152 170 76 150 48 340 -66 456 -36 38 -39 45 -39 98 0 110 -43 159 -194 224
-102 44 -117 48 -186 47 -41 -1 -83 -3 -93 -5 -16 -3 -26 16 -63 121 -24 68
-44 129 -44 135 0 5 19 19 42 30 56 27 99 89 105 152 4 40 -3 70 -48 187 -31
82 -65 153 -81 172 -40 46 -104 68 -171 60 l-54 -6 -52 158 -53 157 44 104
c44 103 45 105 88 119 72 24 130 91 174 202 33 81 37 104 34 155 -2 35 -12 77
-25 101 l-21 40 94 229 c66 161 93 240 91 264 -4 63 -76 91 -120 47 -8 -8 -54
-113 -102 -234 -82 -203 -90 -219 -109 -212 -67 25 -1172 474 -1175 476 -2 2
37 105 88 229 66 164 90 232 85 250 -13 51 -82 72 -120 37 -10 -10 -62 -124
-114 -254 l-95 -235 -43 -12 c-72 -19 -130 -87 -175 -203 -45 -118 -47 -171
-12 -246 20 -44 22 -57 13 -77 -8 -19 -16 -24 -31 -19 -28 9 -104 -24 -125
-54 -10 -15 -58 -125 -107 -245 -85 -212 -87 -221 -82 -282 5 -64 5 -64 -25
-74 -17 -6 -52 -24 -79 -41 l-49 -30 0 28 c0 42 -41 114 -79 139 -49 33 -95
39 -155 20 -39 -13 -52 -14 -57 -4 -4 6 -167 246 -362 532 l-355 520 43 80
c78 145 94 260 55 387 -28 93 -280 464 -336 495 -50 29 -134 30 -186 3z m224
-290 c145 -209 168 -255 168 -339 0 -53 -6 -79 -30 -130 -17 -35 -34 -60 -39
-55 -23 26 -335 491 -338 505 -4 14 28 82 74 157 28 46 52 26 165 -138z m-434
-517 c95 -140 171 -257 169 -259 -12 -12 -111 -15 -156 -4 -93 22 -129 56
-254 238 -153 222 -156 227 -137 246 13 13 114 31 185 34 15 1 61 -59 193
-255z m3055 -519 c452 -182 638 -262 655 -280 30 -34 28 -71 -9 -160 -34 -81
-57 -104 -105 -104 -27 0 -1203 468 -1293 514 -60 31 -64 70 -21 177 35 85 58
109 107 109 21 0 265 -93 666 -256z m-173 -429 c322 -130 587 -239 589 -241 3
-2 -17 -57 -43 -122 l-47 -118 62 -183 c35 -105 58 -186 53 -191 -11 -11 -664
-263 -669 -258 -1 1 -134 287 -295 635 l-291 632 20 46 c11 26 24 44 29 41 4
-2 271 -111 592 -241z m-491 -530 c160 -346 290 -634 288 -638 -3 -9 -279
-119 -284 -113 -14 14 -453 983 -453 1000 0 13 32 101 70 196 72 177 80 194
85 188 2 -2 134 -287 294 -633z m-912 127 c8 -5 18 -84 30 -241 18 -253 17
-259 -36 -239 -14 5 -109 51 -211 101 -135 67 -185 97 -185 110 0 11 65 61
190 147 105 71 192 130 195 130 3 0 11 -4 17 -8z m581 -513 c106 -232 192
-422 190 -424 -9 -9 -555 -215 -568 -215 -8 1 -62 20 -120 44 l-105 43 -24 79
c-18 62 -24 104 -25 194 0 63 2 127 6 141 7 26 10 26 46 17 76 -19 162 24 197
99 15 32 17 54 10 179 l-7 142 49 33 c48 33 144 89 153 89 3 0 92 -190 198
-421z m1745 -144 c28 -71 46 -128 43 -141 -5 -17 -47 -37 -222 -105 -119 -46
-228 -92 -240 -102 -34 -26 -33 -79 2 -106 15 -12 35 -21 45 -21 10 0 75 23
145 50 70 28 128 49 129 48 8 -13 125 -367 125 -379 0 -9 -47 -130 -104 -270
-72 -177 -107 -253 -117 -251 -12 3 -626 249 -988 397 -57 23 -99 45 -95 48 5
3 158 62 339 132 182 70 336 132 342 139 7 6 15 26 19 43 5 26 1 37 -19 57
-15 14 -37 26 -50 26 -13 0 -208 -72 -435 -159 l-411 -160 -194 78 c-106 43
-200 82 -209 87 -13 7 127 65 560 232 317 122 726 281 907 352 182 70 341 128
355 127 22 -2 30 -15 73 -122z m-1967 -724 c351 -142 1031 -417 1509 -611 479
-193 880 -358 893 -366 60 -39 66 -134 10 -186 -54 -51 -73 -46 -520 136 -482
195 -1340 543 -2087 845 -299 121 -552 228 -562 237 -11 10 -24 34 -29 55 -20
73 36 149 110 149 25 0 240 -82 676 -259z m2331 -38 c107 -44 113 -48 113 -82
0 -19 -220 -588 -235 -609 -2 -2 -66 23 -143 54 -129 53 -140 59 -132 78 49
129 225 556 236 574 20 31 57 28 161 -15z m232 -343 c28 -49 37 -131 22 -187
-14 -50 -64 -119 -110 -150 -34 -23 -101 -46 -109 -38 -6 6 160 415 168 415 4
0 16 -18 29 -40z"/>
<path d="M594 2976 c-80 -35 -145 -148 -145 -251 0 -80 29 -136 94 -181 43
-29 289 -97 349 -97 202 2 296 278 138 404 -19 15 -94 52 -167 83 -142 60
-204 70 -269 42z m225 -186 c64 -28 122 -58 129 -67 26 -35 7 -103 -33 -121
-19 -9 -50 -4 -152 24 -164 45 -184 62 -158 138 17 49 43 76 73 76 13 0 77
-23 141 -50z"/>
<path d="M694 2270 c-157 -20 -184 -30 -237 -89 -50 -55 -63 -108 -48 -194 13
-78 27 -111 67 -151 73 -72 145 -78 338 -26 148 39 197 69 234 140 54 107 8
256 -96 309 -57 29 -106 31 -258 11z m209 -162 c22 -26 22 -83 -1 -106 -23
-23 -263 -86 -291 -77 -28 9 -48 41 -56 92 -6 37 -3 46 19 68 14 14 35 25 48
26 13 0 68 7 123 14 113 14 133 12 158 -17z"/>
<path d="M1010 1702 c-42 -21 -226 -160 -257 -193 -51 -55 -68 -154 -39 -224
24 -56 87 -124 140 -150 64 -32 125 -32 191 -1 61 29 247 214 270 268 19 46
19 128 1 172 -20 48 -75 107 -121 127 -52 24 -140 24 -185 1z m145 -157 c17
-16 25 -35 25 -57 0 -28 -14 -46 -99 -130 -118 -117 -137 -122 -195 -57 -29
32 -37 47 -34 72 3 28 18 43 112 115 120 91 149 100 191 57z"/>
</g>
</svg>
