<svg xmlns="http://www.w3.org/2000/svg" width="431.1" height="447.8" viewBox="0 0 431.1 447.8">
  <g id="katman_2" data-name="katman 2">
    <g id="katman_1-2" data-name="katman 1">
      <g>
        <path d="M429.8,321.8c-2.4-21.2-7.7-42-18.9-60.8-7.3-12.1-15.5-23.8-19-37.9-6.3-25.6-22.5-42.2-47.1-51.3-9.3-3.4-19.2-4.9-28.5-10.6l55.8-70.9c-2.2-3.9-5.2-6.5-8.1-9.3s-5.8-4.2-9.3.7-5.4,10.9-9.3,14.1c-5.7,4.7-9.1,10.7-13.8,15.9-2.2,2.3-2.7,4.4-.9,7.3-3.2.5-6.6.3-8.3,3.7-4.9,9.8-13.4,16.9-19.2,26.1s-9.1,9.9-20.8,5a14.8,14.8,0,0,0-1.3-.8c-5.2-1.2-5.4-4.7-2.2-7.4,8.8-7.3,14.4-17,20-26.5,10.5-17.8,21.7-35.3,27.2-55.5,2.8-10.4,1.4-20.1-5-28.8-5.4-7.2-10.6-14.6-17.6-20.5C286.4-.3,255.7-8.1,237.6,12.7c-3.6,4.1-5.6,8.9-8.7,13.3-10,14-17.1,30.1-22.8,46.3a145.1,145.1,0,0,0-7.5,45.8c-.3,14.8-12,32.4-18.3,35.6l-5.2-11.2c-13.3-29.8-26.9-59.4-39.9-89.3-3.3-7.6-7.8-5.1-12.5-3s-8.4,4.4-5.3,10.8c2.2,4.5,4.6,8.7,8.2,12.2,9.6,9.8,14.2,22.6,20.1,34.6,7.2,14.7,13.9,29.7,20.7,44.6,2,4.3,2.3,7.5-4.2,5.3-2.3,5.5-7.7,5.5-12,5.3-17.4-.9-33.7,2.9-49.2,10.4-5.4,2.7-11.5,4.5-15.1,9.9-12.2,18.2-27,34.7-33.7,56.4-4,12.6-15.9,20.5-22.5,31.5C11.1,302,3.4,336.3.1,371.7c-.8,9.4,1.9,11.9,11.2,12.4,10.9.5,21.8,1.5,32.6.9,18.3-1.1,34.2-9,47.8-20.8,11.7-10.2,22.5-21.4,34.5-32.8,3.2,13.5,5.9,25.6,8.9,37.8s8,24.2,8.9,36.5,6,17.2,14,22.7a94.3,94.3,0,0,0,45.3,16.4c19.4,1.8,38.8,4.6,58.6,1.9,12.4-1.8,22.8-8.4,34.3-12.3s17.3-11.1,24.6-18.4c3.3-3.3,4.3-7.4,4.7-12.2,1.1-15.4,5.3-30,11.1-45,9.5,9.4,19,17.1,30.1,23.1,16.7,9,34,14.5,53.1,14.6,4.9,0,7-1.3,7.7-6.4C430.7,367.3,432.4,344.4,429.8,321.8Z"/>
        <path d="M313.8,207.9c9.4,15.3,13.5,32.1,19.5,50.6-4.5-3.9-5.9-7.8-10.3-9-2.7-.8-3.8-4.6-3.1-7.5,1.9-9.4-2.4-17-6.5-24.6C311.8,214.4,310.6,211.8,313.8,207.9Zm.1,38.5c2.5.5,2.6,2,3.2,3.1,3,4.9,9.5,8.5,6,15.8s-9.2,16-17.7,20.5c-4.4,2.3-8.5,1.9-11.6-2.9s-10-11.6-12.9-19.1C289.9,253.4,306.4,257.9,313.9,246.4Zm-23.6,39c1.7,1.8,1.4,4.1-1.2,5.1-9.6,4-19,9.5-31.1,7.5l17.3-33.4C280.3,272.7,284.7,279.4,290.3,285.4Zm-36.6-15.1c-.6,4.9-6.1,14.6-11.1,19.7C240.1,276.8,240.1,276.8,253.7,270.3Zm-90.1-9.9c1.9-5.3,12.5-5.2,17.7-.1s5,9.8-.2,14.4a89.5,89.5,0,0,1-15.3,11.4c-5.4,3-9.9,2.7-14.6-1.8A102.4,102.4,0,0,0,163.6,260.4Zm-15.8,20.1c-11.4-12.7-12.3-23.8-2.4-32.9,4.2,3.6,7.9,8.2,14.5,9.2C157.2,265.7,154.4,274,147.8,280.5Zm59-14.2c9.6-.6,12.9,2.3,13.1,11.7.1,6.9.5,13.8.7,20.6a7.4,7.4,0,0,1-.8,2.2c-15.5-2-29.5-6.3-42-16.8C186.4,275.9,194.1,267.2,206.8,266.3Zm-39.2-82.6c11.6-3.5,22.6,3.5,34.8,1C189.9,193.9,178.8,187,167.6,183.7Zm70.5,18.8L225,191l18.6,3.4C243.1,198.2,240.4,199.9,238.1,202.5ZM233,186.7c13.9-.7,27.7-1.9,40.5-11.8a26.7,26.7,0,0,1-3.3,12.5C257.9,186.7,245.5,191.2,233,186.7Zm22.9-29c7.2-15.1,17.4-23.9,32.6-29.1C278.7,139.7,269.7,149.8,255.9,157.7ZM256,22.4c.8-2.8,2.5-5.7,2.1-8.4-1.4-9.7,4.3-10.3,11.4-9.8,11.2.8,20.9,5.7,29.6,12.4,7.2,5.4,12.5,12.9,18.2,19.9s6,15.4.8,24.6c-16.2-7.7-24.3,4.8-34.8,14-17.6,15.3-21.2,33.6-16.4,54.9,1,4.3-1.5,6.6-3.7,9-5.4,5.8-11.6,11.1-12.3,19.8-.1,2.2-2.2,2.7-3.9,3.5a32,32,0,0,1-38.7-9.1c-2.9-3.6-3.8-7.2-1-11.5a109,109,0,0,0,13-28.9c1.3-4.5,3.7-6.5,8.3-6.9a41.9,41.9,0,0,0,13.8-3.5c9.2-4.4,16.1-10.3,19.4-20.6a244,244,0,0,0,6.9-26.4c2-9.8-2.8-17.4-10-23.2C255.1,29.2,254.9,26.3,256,22.4ZM219.8,49.9c6.7-11.7,12.7-23.8,21.3-34.2,3-3.6,6.8-7.4,13.3-8.9-1.7,11-.9,21.5-9.4,29.7-11.1,10.8-22.8,21.4-24.8,38.4a62.9,62.9,0,0,0-.6,15c1.6,18-7.8,32.4-14.2,47.7-3.2-.3-4.8-1-4.6-3.9C202.7,104.8,204.8,76,219.8,49.9ZM197.3,153.7c29.6,22.8,58.7,18.6,77,2-.4,5.3-2.8,10-.9,13.8-15,12.4-32.1,12.9-49.5,12.4-11.8-.4-19.4-7.9-26.9-15.3C193.6,163.3,196.4,158.1,197.3,153.7Zm7.7,26.9c-9.4.5-17.4.9-25.4-2.6C194.2,168.5,194.2,168.5,205,180.6Zm-12.8-33.8c1.7,18.7-6.1,26.6-24.3,27.6-.9-3-1.9-6.2-2.9-9.7C174.5,159.8,186.2,159.5,192.2,146.8Zm-33.8,47.6c3-4.2,6.3-5.8,11.5-4.3s10.7,2.3,18.2,3.8c-6.2,4.3-9.4,7.8-15.5,9.7s-16.5,6.5-20.5,16.3c-2.9,7.1-7.2,13.1-2.6,20.8.3.6-.6,1.8-1,2.8-10.8-4.4-11.8-6.6-7.9-16.5A161,161,0,0,1,158.4,194.4ZM106.9,344.1c-5.1,4.7-10,9.6-15,14.3-16.8,15.3-36,23.9-59.2,22.4-9.2-.7-18.5-1-27.4-3-1.8-3.7-1.3-7.2-.8-10.5,4.5-31.1,10.7-61.7,26-89.6,3.5-6.4,8.9-11,13.2-16.6,6.5-8.5,12.2-17.3,15.8-27.4,5.9-16.6,15.8-30.9,27.8-43.2,16.2-16.8,36.6-24.7,58.4-22.6-29.6,7.3-55.6,22.5-72.3,51.2-4.1,7.2-8.3,14.3-10.4,22.3-3.5,12.7-11.7,21.7-22.6,29.8l22,10.6L90.1,251l12.6,22.2c-13.5,7.2-25.2,16.8-41.5,15.4-9.8-.7-17.4,6.7-27.6,9.3,4.5,3.8,8.1,2.1,11,.4,7.2-4.2,14.9-5.6,22.9-5.6a36.4,36.4,0,0,0,22.1-7.3c9.6-6.9,21.8-9.7,30.4-20.4.6,5.2,1.1,8.7,1.6,12.9C90.9,292.2,61.4,308.6,35.2,331c3,1.5,6.2.1,9-1.1a25.5,25.5,0,0,0,7.2-4.9c20.4-19.8,46.5-29.9,71.2-43.1,2.9,5.1,5.5,9.7,8.3,14.1,1.4,2.2,1.2,3.9-.4,5.7-13.9,15.9-24,35.1-41.6,47.9S55.4,372,34.6,374.3c-.9.1-1.7,1-2.7,1.6,5.9,3.1,11.1,2.4,19.5-.6,33.6-12.2,58.8-34.2,77.4-64.4a58.2,58.2,0,0,1,4.8-6.3,18.1,18.1,0,0,1,2.3-2l6.7,4.8C131,320.4,119.3,332.6,106.9,344.1Zm18.2-69.3c-3.9-10.9-2.6-13.7,7.9-20.5C134.6,263,125.1,265.5,125.1,274.8Zm89.7,167.6c-12.1-1.4-24.2-3.2-35.6-7.7-6.9-2.7-8-15.8-2.1-20.3,15.6-11.9,26.3-28,37.6-43.7l5.3-7.6c0,24.8.6,49.2,1,73.5C221.1,441.2,219.1,442.8,214.8,442.4Zm-.3-102c-11.9,17.6-23.9,35-38.7,50.4a24.3,24.3,0,0,1-7.6,5.4c1.8-.8-1.7-19.5-1.6-21.9a25.7,25.7,0,0,1,2.3-11.3c1.2-2.5,3.3-4.5,4.2-7.2,1.7-5.1.3-11-.7-16.1s-5.2-7.8-10.6-8.9c-8.3-1.8-15.5-6.5-22.3-13,9.2-11.3,21.5-18.9,31.7-28.6,2.6-2.5,5.7-.1,8,1.4,12.7,8,25.8,14.8,41.5,15C222.9,318.8,221.7,329.7,214.5,340.4Zm11.4-22.2c-.7-15.3-1.4-29.7-2.1-45.6C230.8,279.6,231.9,311.1,225.9,318.2ZM231.1,436c.2,2.3,1.4,6-2.8,6s-3.2-3.5-3.2-5.9c-.2-23.7-.7-47.3.3-70.9.3-7.2-.5-14,6.7-19.9-1,13.6-2.4,26.3-2.9,39A357.6,357.6,0,0,0,231.1,436Zm5.7-159.4c.4,9.3,1.6,17.7-.6,26C231.9,289.9,232,281,236.8,276.6Zm-1.5,162c-2.3-27.9-2.6-55.7.5-83.4,0-.5.5-.9.9-1.5,2.6,25.4-1.2,64.4,3.6,89.9C237.7,443.2,235.6,442.3,235.3,438.6Zm51.1-101.8c0,5.9,0,11.7.1,17.5a7.9,7.9,0,0,0,1.3,4.5c7.2,9.1,8.6,20.9,8.4,32.2-.1,5.8-.5,11.5-.8,17.3s.5,10.5-1,15.4c-2.9,9.8-13,13.8-22,16.1s-18.9,4.8-28.8,4.2c1.1-6.2-1.8-21.1-1.8-25,0-28.7-.3-57.3-.3-86,0-11.6,8.5-19.5,13.2-29.1.8-1.6,2.9-1.2,4.4-1.1a51.4,51.4,0,0,0,26.8-6.5c4.1-2.2,6.9-1.6,9.8,2.7,6.3,9.3,14.3,17.5,18.2,29.5C305.5,333.6,296.1,334.9,286.4,336.8Zm137.9,46.6c-.6,7.2-3.6,9.3-10.7,8.6-28.9-3.1-53.2-14.6-73.1-36.1-12.7-13.8-22.6-29.3-31.6-47.2,13.5-7.6,25.8-15.6,30.8-32.1,16.6,24.1,46.7,30.3,62.7,53.9-.6-7.5-5.2-12.4-10.3-16.7a237,237,0,0,0-26.6-18.9c-7.8-4.7-14.1-11-19.7-18.7L367.2,262c1.8,10.5,3.9,19.8,5,29.1.6,5.6,3.3,6.9,8.3,7.1,12.9.5,24.6-3.1,36.1-9.7a70.8,70.8,0,0,1,8.5,28.8A416.9,416.9,0,0,1,424.3,383.4Z" style="fill: #c1002e"/>
        <path d="M289.9,108.9c-1.7,1.4-2.9.4-4.1-.7l-10.9-9.9c7.8-2,11.3,2.3,14.9,6.4C290.9,106,291.5,107.4,289.9,108.9Z" style="fill: #fff"/>
        <path d="M234.5,75.1c7.8-5.2,15.5.5,16.4,11.6C244.9,82.3,241.4,77,234.5,75.1Z" style="fill: #fff"/>
        <path d="M240.3,270.2c-1.4-8.5,2.6-12.6,15.9-16.7C250,257.9,244,262.5,240.3,270.2Z" style="fill: #494545"/>
        <path d="M216.6,256.3a4.1,4.1,0,0,0,.5-.9l10.2,4.3c1.7,4,8.1,5.5,5.9,12.4Z" style="fill: #494545"/>
        <path d="M156.1,219.9c3-2.8,6.8-4.3,10.5-6.1,14.5-7.3,26.3-19.4,41-26.1.6-.2,1.3-.5,1.8-.2s.1,2.5-1,3.3c-8.7,6.4-17.5,12.8-27.1,18s-19.9,9.6-23.5,19.4c-1.2,3-3.4,16.3-6.1,6.6C150.2,229.7,152.4,223.4,156.1,219.9Z" style="fill: #494545"/>
        <path d="M278.5,195.1c8.1,3.6,16.4,7.3,23,13.2s11.2,14.8,10,23.6c-2.8-8.9-7.8-19.5-17.9-26.4-14.4-9.9-33.4-8-33.4-11,0-1.4,4.2-3,7.7-2.9S275.3,193.7,278.5,195.1Z" style="fill: #494545"/>
        <path d="M65.4,252.1A102.7,102.7,0,0,0,72.3,236c6.1-18.5,26.8-35,36-42.3a147.9,147.9,0,0,1,45.6-24.6c-.2.5-.2,1.8-1.2,2.3-13.9,8.3-28.2,15.9-41.2,25.5s-24.9,21.2-32.4,35.5c-2.4,4.8-4.4,9.9-6.7,14.8a125.3,125.3,0,0,1-9.7,17.1c-1.9,2.8-3.9,5.5-6.8,7.2s-6.4,1.5-6.8.5,2.8-2.6,6.4-5.8S62.2,258.2,65.4,252.1Z" style="fill: #494545"/>
        <path d="M349.6,186.6c7.8,3.1,15.8,6.4,20.9,12.2,3.7,4.3,5.5,9.4,7.3,14.4a284.6,284.6,0,0,0,33.7,64.9l-5.8.6a473.3,473.3,0,0,1-30.5-56.3c-2.3-5.2-4.6-10.5-8.1-15.3-7.2-9.6-19-16.3-31.1-21.6s-24.9-9.6-36.2-15.9c-2.6-1.5-6.6-2.8-5.9-5.3C312.8,169.5,331.5,179.3,349.6,186.6Z" style="fill: #494545"/>
        <path d="M235.6,217.8c-1.5-5.6-12.2-10.6-20.7-7.4-6.4,2.3-9.1,8.3-10.1,10.6-2.9,6.4-3.8,16.2,1.3,22.1s10.7,1.6,18.6,8.7c4.2,3.8,6,7.9,9.6,7.8,2.1-.2,3.2-1.7,5.3-3.5,7-6,12.1-3.6,18.3-7.7s9.1-15,9.6-18.1,2.8-17.9-5.8-22.3c-4.9-2.5-12.4-.8-16,2.9a67.6,67.6,0,0,0-5.3,6.9c-2.1,3-3.2,4.8-4,4.5S236.2,219.8,235.6,217.8Z" style="fill: #d33939"/>
      </g>
    </g>
  </g>
</svg>
