<?xml version="1.0" standalone="no"?>
<svg version="1.0" xmlns="http://www.w3.org/2000/svg"
     width="1200.000000pt" height="626.000000pt" viewBox="0 0 1200.000000 626.000000"
     preserveAspectRatio="xMidYMid meet">

    <g transform="translate(0.000000,626.000000) scale(0.100000,-0.100000)"
       fill="currentColor" stroke="none">
        <path d="M320 3838 l0 -2083 1978 -733 1977 -732 3725 678 3725 678 3 2137 2
2137 -5705 0 -5705 0 0 -2082z m11250 -68 c0 -1094 -2 -1990 -5 -1990 -2 0
-1636 -297 -3631 -660 -1994 -363 -3633 -660 -3642 -660 -9 1 -870 317 -1912
704 l-1895 702 -3 1947 -2 1947 5545 0 5545 0 0 -1990z"/>
        <path d="M690 3782 l0 -1767 1809 -671 1809 -671 3524 642 3523 641 3 1797 2
1797 -5335 0 -5335 0 0 -1768z m7065 1105 c92 -46 162 -143 203 -280 11 -40
16 -126 19 -381 3 -180 1 -332 -4 -336 -4 -5 -49 -12 -100 -15 l-92 -7 -3 333
c-3 288 -5 338 -20 364 -62 113 -187 111 -245 -5 l-23 -44 0 -1106 c0 -1063 1
-1107 19 -1147 23 -49 45 -63 101 -63 77 0 139 55 159 140 6 26 11 179 11 356
l0 312 43 5 c23 4 68 9 100 13 l59 7 -5 -339 c-5 -377 -9 -409 -73 -536 -45
-90 -120 -170 -193 -205 -48 -24 -68 -28 -141 -28 -75 0 -91 3 -131 27 -79 46
-133 127 -167 251 -16 57 -17 152 -17 1187 l0 1125 23 80 c30 104 66 168 129
231 69 70 134 95 228 91 50 -3 84 -11 120 -30z m-5795 -787 c5 -862 2 -814 66
-845 40 -19 55 -19 80 -1 18 14 19 37 24 823 l5 808 275 0 275 0 0 -915 c0
-858 -1 -919 -18 -980 -87 -306 -304 -383 -674 -239 -298 117 -514 334 -590
594 -16 54 -18 129 -21 789 -1 401 0 736 2 743 5 11 60 13 288 11 l283 -3 5
-785z m1499 305 c81 -264 161 -527 177 -585 l29 -105 3 588 2 587 250 0 250 0
0 -1411 c0 -1169 -2 -1410 -13 -1407 -8 2 -113 37 -235 78 l-222 75 -10 35
c-5 19 -87 306 -182 637 l-173 602 -5 -569 c-3 -370 -9 -570 -15 -570 -5 0
-119 36 -252 81 l-243 81 0 1177 c0 648 3 1181 7 1185 4 3 114 5 246 4 l239
-3 147 -480z m1306 473 c2 -7 47 -580 100 -1273 53 -693 100 -1268 103 -1278
4 -10 51 559 105 1265 54 706 102 1286 106 1291 4 4 77 6 162 5 l154 -3 0
-1660 0 -1660 -90 -17 c-49 -9 -100 -17 -112 -18 l-23 0 -1 1148 c-1 631 -3
1136 -5 1122 -2 -14 -47 -531 -99 -1150 -53 -619 -98 -1134 -100 -1146 -4 -17
-19 -23 -106 -38 -55 -10 -102 -16 -103 -14 -2 1 -52 548 -112 1213 l-109
1210 -3 -1235 -2 -1236 -68 -12 c-37 -6 -82 -14 -99 -18 l-33 -6 0 1761 0
1761 165 0 c124 0 167 -3 170 -12z m1399 -10 c5 -22 255 -3010 259 -3092 l2
-39 -118 -22 c-81 -15 -120 -18 -122 -11 -2 6 -11 148 -20 316 -9 168 -18 306
-20 308 -1 2 -57 -5 -124 -14 -111 -16 -121 -19 -121 -38 0 -38 -50 -640 -54
-643 -5 -6 -201 -41 -205 -37 -5 5 278 3274 284 3285 4 5 58 9 120 9 111 0
115 -1 119 -22z m961 -118 l0 -135 -112 -3 -113 -3 0 -1393 0 -1393 -102 -18
c-57 -10 -109 -20 -115 -22 -10 -4 -13 281 -13 1406 l0 1410 -122 3 -123 3 -3
129 c-1 72 0 136 2 143 4 11 73 13 353 11 l348 -3 0 -135z m1275 -506 l0 -647
83 7 c45 4 108 9 140 13 l57 6 0 633 0 634 115 0 115 0 0 -1348 0 -1348 -112
-20 -113 -20 -3 613 -2 613 -28 -1 c-15 0 -76 -6 -137 -12 l-110 -12 -3 -628
c-1 -345 -3 -627 -5 -627 -2 0 -52 -9 -112 -20 -60 -11 -110 -20 -112 -20 -2
0 -3 637 -3 1415 l0 1415 115 0 115 0 0 -646z m1340 537 l0 -109 -190 -7 -190
-7 0 -460 0 -460 113 7 c61 4 123 8 137 9 l25 1 0 -110 0 -110 -137 -14 -138
-14 0 -498 c0 -360 3 -499 11 -499 12 0 294 46 342 56 l27 6 0 -111 c0 -96 -2
-110 -17 -115 -30 -8 -569 -106 -587 -106 -15 0 -16 107 -16 1318 0 725 3
1322 7 1325 3 4 143 7 310 7 l303 0 0 -109z m718 80 c101 -46 160 -141 181
-295 7 -50 11 -359 11 -870 0 -876 -2 -913 -60 -1033 -38 -78 -120 -154 -195
-182 -30 -11 -139 -36 -242 -56 -103 -19 -200 -38 -215 -41 l-28 -6 0 1250 c0
687 3 1252 7 1256 4 4 116 6 248 4 228 -3 243 -4 293 -27z m362 14 c0 -8 -9
-15 -20 -15 -18 0 -20 -7 -20 -60 0 -47 -3 -60 -15 -60 -12 0 -15 13 -15 56 0
47 -3 57 -20 61 -11 3 -20 12 -20 19 0 10 15 14 55 14 42 0 55 -3 55 -15z m79
-40 l14 -50 17 50 c12 37 22 50 36 50 17 0 19 -9 22 -72 2 -59 0 -73 -12 -73
-10 0 -16 13 -18 43 l-3 42 -13 -43 c-16 -54 -40 -53 -58 3 l-12 40 -1 -42
c-1 -31 -5 -43 -16 -43 -12 0 -15 14 -15 68 0 38 3 72 7 76 17 17 38 -3 52
-49z m-8089 -2493 l1365 -499 3 -218 2 -217 -22 4 c-20 4 -358 128 -1773 648
-132 48 -352 129 -490 180 -137 50 -306 112 -375 138 l-125 47 -3 214 -2 214
27 -6 c16 -3 642 -230 1393 -505z"/>
        <path d="M5981 3299 c-30 -384 -52 -701 -50 -703 5 -5 187 19 193 25 5 5 -79
1367 -85 1373 -2 3 -29 -310 -58 -695z"/>
        <path d="M10150 3660 l0 -1000 23 0 c45 1 156 27 180 43 13 8 33 33 43 54 18
36 19 73 19 908 0 479 -3 886 -8 906 -4 20 -19 49 -34 63 -24 25 -31 26 -124
26 l-99 0 0 -1000z"/>
    </g>
</svg>
